<svg version="1.1" xmlns="http://www.w3.org/2000/svg" xmlns:xlink="http://www.w3.org/1999/xlink" width="128" height="82.4"><defs><linearGradient x1="176" y1="180" x2="304" y2="180" gradientUnits="userSpaceOnUse" id="color-1"><stop offset="0" stop-color="#cc6666"/><stop offset="1" stop-color="#80ffff"/></linearGradient><linearGradient x1="180.2" y1="180" x2="299.8" y2="180" gradientUnits="userSpaceOnUse" id="color-2"><stop offset="0" stop-color="#ff0000"/><stop offset="1" stop-color="#00ffff"/></linearGradient><linearGradient x1="199.4" y1="181.35" x2="280.7" y2="181.35" gradientUnits="userSpaceOnUse" id="color-3"><stop offset="0" stop-color="#ff2727"/><stop offset="1" stop-color="#27ffff"/></linearGradient></defs><g transform="translate(-176,-138.8)"><g data-paper-data="{&quot;isPaintingLayer&quot;:true}" fill="none" fill-rule="nonzero" stroke="none" stroke-width="1" stroke-linecap="butt" stroke-linejoin="miter" stroke-miterlimit="10" stroke-dasharray="" stroke-dashoffset="0" font-family="none" font-weight="none" font-size="none" text-anchor="none" style="mix-blend-mode: normal"><path d="M297.5,221.2h-115c-3.6,0 -6.5,-2.9 -6.5,-6.5v-69.4c0,-3.6 2.9,-6.5 6.5,-6.5h115c3.6,0 6.5,2.9 6.5,6.5v69.3c0,3.7 -2.9,6.6 -6.5,6.6z" data-paper-data="{&quot;origPos&quot;:null}" fill="url(#color-1)"/><path d="M296.5,216.85h-113c-1.8,0 -3.3,-1.5 -3.3,-3.3v-67.1c0,-1.8 1.5,-3.3 3.3,-3.3h113c1.8,0 3.3,1.5 3.3,3.3v67.2c-0.1,1.8 -1.5,3.2 -3.3,3.2z" data-paper-data="{&quot;origPos&quot;:null}" fill="url(#color-2)"/><path d="M199.5,154.1c0,-1.2 0.9,-2.1 2.1,-2.1h4.2c1.1,0 1.5,0.5 2.1,1.1l2.1,2.1c0.5,0.5 1.1,1 2.1,1h6.3c1,0 1.5,-0.5 2.1,-1l2.1,-2.1c0.5,-0.5 1.1,-1.1 2.1,-1.1h53.9c1.2,0 2.1,0.9 2.1,2.1v20.9c0,1.2 -0.9,2.1 -2.1,2.1h-45.7c-1,0 -1.5,0.5 -2.1,1.1l-2.1,2.1c-0.5,0.5 -1.1,1 -2.1,1h-6.3c-1.1,0 -1.5,-0.5 -2.1,-1l-2.1,-2.1c-0.5,-0.5 -1,-1.1 -2.1,-1.1h-4.2c-1.2,0 -2.1,0.9 -2.1,2.1v8.4c0,1.2 0.9,2.1 2.1,2.1h4.2c1.1,0 1.5,0.5 2.1,1l2.1,2.1c0.5,0.5 1,1 2.1,1h6.3c1,0 1.5,-0.5 2.1,-1l2.1,-2.1c0.5,-0.5 1,-1 2.1,-1h45.5c1.2,0 2.1,0.9 2.1,2.1v12.6c0,1.2 -0.9,2.1 -2.1,2.1h-53.8c-1,0 -1.5,0.5 -2.1,1l-2.1,2.1c-0.5,0.5 -1.1,1.1 -2.1,1.1h-6.3c-1,0 -1.5,-0.5 -2.1,-1.1l-2.1,-2c-0.5,-0.5 -1,-1 -2.1,-1h-4.2c-1.2,0 -2.1,-0.9 -2.1,-2.1v-50.4z" data-paper-data="{&quot;origPos&quot;:null}" fill="url(#color-3)"/><path d="M213,162.8l10.6,12.4l11.1,-12.4l5.5,5.7l5.2,-5.7l9.7,12.4l7.5,-11.3l13.7,8.8l18.9,44.1h-76.9l-3.4,-17.1l-4.8,-2.6z" data-paper-data="{&quot;origPos&quot;:null}" fill="#999999" opacity="0.5"/><path d="M210.7,168.1h6.9l2.1,25.1l11.5,-25.1h6.4l-15,31.6h-7.7z" fill="#9c9c9c"/><path d="M241.2,168.1h6.3l-5.6,31.6h-6.3z" fill="#9c9c9c"/><path d="M276.1,177.3c-0.7,9.8 -9.1,12.3 -18.1,11.2l-2,11.2h-6.5l5.8,-31.6h11.6c0,0 9.9,-0.6 9.2,9.2zM265.1,173.3h-4.5l-1.8,10.2c7.4,0.7 10.6,-1.5 11,-6.1c0.4,-4.6 -4.7,-4.1 -4.7,-4.1z" fill="#9c9c9c"/><path d="M205.5,162.8h7.5l2.3,27.3l12.4,-27.3h7l-16.3,34.3h-8.3z" fill="#ffffff"/><path d="M238.5,162.8h6.9l-6.1,34.3h-6.8z" fill="#ffffff"/><path d="M276.3,172.7c-0.8,10.6 -9.8,13.3 -19.6,12.1l-2.1,12.2h-7l6.3,-34.2h12.4c0,0 10.8,-0.7 10,9.9zM264.5,168.6h-4.9l-2,11c8,0.8 11.5,-1.6 11.9,-6.6c0.5,-5 -5,-4.5 -5,-4.4z" fill="#ffffff"/><g data-paper-data="{&quot;origPos&quot;:null}" fill="#00df2d"><path d="M284.7,155.6l-2.7,-2.7l8,-8l8,8l-2.7,2.7l-5.3,-5.3z" data-paper-data="{&quot;origPos&quot;:null}"/><path d="M284.7,166.3l-2.7,-2.7l8,-8l8,8l-2.7,2.7l-5.3,-5.4z" data-paper-data="{&quot;origPos&quot;:null}"/><path d="M284.7,176.9l-2.7,-2.6l8,-8l8,8l-2.7,2.6l-5.3,-5.3z" data-paper-data="{&quot;origPos&quot;:null}"/></g></g></g></svg>